<!-- public/svgs/phone.svg -->
<svg width="24" height="24" viewBox="0 0 24 24" fill="none" xmlns="http://www.w3.org/2000/svg">
  <path d="M10.554 14.027C11.8842 15.9897 13.9442 17.9014 15.973 19.446C16.2098 19.6292 16.4914 19.743 16.7874 19.7752C17.0834 19.8074 17.3828 19.7568 17.652 19.629L20.694 18.197C20.9448 18.0797 21.1593 17.8974 21.3147 17.6696C21.4702 17.4418 21.5606 17.1774 21.576 16.904C21.588 16.658 21.588 15.83 21.012 15.254C20.696 14.938 20.242 14.938 19.926 15.254L18.436 16.744C16.2979 15.6889 14.3111 13.7021 13.256 11.564L14.746 10.074C15.062 9.758 15.062 9.304 14.746 8.988C14.17 8.412 13.342 8.412 13.096 8.424C12.8226 8.43941 12.5582 8.52982 12.3304 8.68527C12.1026 8.84072 11.9203 9.05517 11.803 9.306L10.371 12.348C10.2432 12.6172 10.1926 12.9166 10.2248 13.2126C10.257 13.5086 10.3708 13.7902 10.554 14.027Z" stroke="#00BFFF" stroke-width="1.5" stroke-linecap="round" stroke-linejoin="round"/>
</svg>