<!-- public/svgs/twitter.svg -->
<svg width="24" height="24" viewBox="0 0 24 24" fill="none" xmlns="http://www.w3.org/2000/svg">
  <path d="M22 4.00002C21.1172 4.67515 20.132 5.19211 19.086 5.53002C18.5255 4.83752 17.7574 4.34669 16.8983 4.12397C16.0393 3.90125 15.1314 3.9572 14.3026 4.2845C13.4738 4.6118 12.7653 5.19445 12.2762 5.95376C11.7871 6.71308 11.5406 7.61238 11.569 8.53002V9.53002C9.81763 9.57561 8.08013 9.18586 6.51984 8.39585C4.95955 7.60584 3.62583 6.43968 2.64001 5.00002C2.64001 5.00002 -0.359985 13 7.99999 16C6.13971 17.198 3.99866 17.8621 1.79999 18C10.16 22 20.16 18 20.16 8.50002C20.1593 8.28146 20.1393 8.06341 20.1 7.84802C21.0837 6.97238 21.834 5.84346 22.27 4.57502L22 4.00002Z" stroke="#00BFFF" stroke-width="1.5" stroke-linecap="round" stroke-linejoin="round"/>
</svg>